<mxfile host="65bd71144e" scale="5" border="0">
    <diagram id="UZKCZLVoT4M83nrE4oMJ" name="Page-1">
        <mxGraphModel dx="896" dy="623" grid="1" gridSize="10" guides="1" tooltips="1" connect="1" arrows="1" fold="1" page="1" pageScale="1" pageWidth="850" pageHeight="1100" math="0" shadow="0">
            <root>
                <mxCell id="0"/>
                <mxCell id="1" parent="0"/>
                <mxCell id="6" style="edgeStyle=none;html=1;exitX=1;exitY=0.5;exitDx=0;exitDy=0;" edge="1" parent="1" source="2" target="4">
                    <mxGeometry relative="1" as="geometry"/>
                </mxCell>
                <mxCell id="2" value="COLLECT EOD HISTORICAL MARKET DATA OF PSEI" style="rounded=0;whiteSpace=wrap;html=1;fontFamily=CMU;fontSource=https%3A%2F%2Ffontlibrary.org%2F%2Fface%2Fcmu-serif;fontStyle=1" vertex="1" parent="1">
                    <mxGeometry x="20" y="160" width="220" height="60" as="geometry"/>
                </mxCell>
                <mxCell id="9" style="edgeStyle=none;rounded=0;html=1;exitX=1;exitY=0.5;exitDx=0;exitDy=0;entryX=0;entryY=0.5;entryDx=0;entryDy=0;" edge="1" parent="1" source="3" target="8">
                    <mxGeometry relative="1" as="geometry"/>
                </mxCell>
                <mxCell id="3" value="COLLECT EOD HISTORICAL MARKET DATA FOR OTHER STOCKS" style="rounded=0;whiteSpace=wrap;html=1;fontFamily=CMU;fontSource=https%3A%2F%2Ffontlibrary.org%2F%2Fface%2Fcmu-serif;fontStyle=1" vertex="1" parent="1">
                    <mxGeometry x="20" y="320" width="220" height="60" as="geometry"/>
                </mxCell>
                <mxCell id="7" style="edgeStyle=none;html=1;exitX=0.5;exitY=1;exitDx=0;exitDy=0;entryX=0.5;entryY=0;entryDx=0;entryDy=0;rounded=0;" edge="1" parent="1" source="4" target="5">
                    <mxGeometry relative="1" as="geometry">
                        <Array as="points">
                            <mxPoint x="390" y="230"/>
                            <mxPoint x="260" y="230"/>
                        </Array>
                    </mxGeometry>
                </mxCell>
                <mxCell id="4" value="&lt;span style=&quot;background-color: rgb(255, 255, 255);&quot;&gt;Optimization of fast and slow&lt;br&gt;ALMA parameters&lt;br&gt;&lt;span style=&quot;font-weight: normal;&quot;&gt;&lt;i&gt;(Using Grid Search)&lt;/i&gt;&lt;/span&gt;&lt;br&gt;&lt;/span&gt;" style="rounded=0;whiteSpace=wrap;html=1;fontFamily=CMU;fontSource=https%3A%2F%2Ffontlibrary.org%2F%2Fface%2Fcmu-serif;fontStyle=1;verticalAlign=middle;align=center;" vertex="1" parent="1">
                    <mxGeometry x="290" y="160" width="200" height="60" as="geometry"/>
                </mxCell>
                <mxCell id="10" style="edgeStyle=none;rounded=0;html=1;exitX=1;exitY=0.5;exitDx=0;exitDy=0;entryX=0.5;entryY=0;entryDx=0;entryDy=0;" edge="1" parent="1" source="5" target="8">
                    <mxGeometry relative="1" as="geometry">
                        <Array as="points">
                            <mxPoint x="400" y="275"/>
                        </Array>
                    </mxGeometry>
                </mxCell>
                <mxCell id="5" value="OUTPUT: Optimal ALMA Parameters" style="rounded=0;whiteSpace=wrap;html=1;fontFamily=CMU;fontSource=https%3A%2F%2Ffontlibrary.org%2F%2Fface%2Fcmu-serif;fontStyle=1;verticalAlign=middle;align=center;fillColor=#d5e8d4;strokeColor=#82b366;" vertex="1" parent="1">
                    <mxGeometry x="160" y="250" width="200" height="50" as="geometry"/>
                </mxCell>
                <mxCell id="8" value="&lt;span style=&quot;background-color: rgb(255, 255, 255);&quot;&gt;Validation of Optimal ALMA Parameters&lt;br&gt;&lt;span style=&quot;font-weight: normal;&quot;&gt;&lt;i&gt;(Using Return Backtesting)&lt;/i&gt;&lt;/span&gt;&lt;br&gt;&lt;/span&gt;" style="rounded=0;whiteSpace=wrap;html=1;fontFamily=CMU;fontSource=https%3A%2F%2Ffontlibrary.org%2F%2Fface%2Fcmu-serif;fontStyle=1;verticalAlign=middle;align=center;" vertex="1" parent="1">
                    <mxGeometry x="310" y="320" width="180" height="60" as="geometry"/>
                </mxCell>
            </root>
        </mxGraphModel>
    </diagram>
</mxfile>